<svg id="Layer_1" data-name="Layer 1" xmlns="http://www.w3.org/2000/svg" viewBox="0 0 1024 726.55"><defs><style>.cls-1{fill:#a5a4c0;}.cls-2,.cls-49{fill:#fff;}.cls-3{fill:#e9e8e8;}.cls-4{fill:#b2b2b2;}.cls-5{fill:#868686;}.cls-6{font-size:4.92px;}.cls-100,.cls-105,.cls-16,.cls-19,.cls-20,.cls-27,.cls-31,.cls-50,.cls-52,.cls-54,.cls-55,.cls-56,.cls-58,.cls-6,.cls-7,.cls-71,.cls-73,.cls-78,.cls-79,.cls-82,.cls-83,.cls-84,.cls-85,.cls-9,.cls-91,.cls-95{fill:#1e1e1c;}.cls-20,.cls-55,.cls-58,.cls-6,.cls-73,.cls-83,.cls-85,.cls-9{font-family:Montserrat-SemiBold, Montserrat;font-weight:600;}.cls-7{font-size:4.1px;}.cls-100,.cls-27,.cls-56,.cls-7,.cls-71,.cls-84{font-family:OpenSans-Light, Open Sans;font-weight:300;}.cls-8{fill:#d1d1d1;}.cls-9{font-size:2.87px;}.cls-10{letter-spacing:-0.02em;}.cls-11{letter-spacing:-0.01em;}.cls-12{letter-spacing:0em;}.cls-13{letter-spacing:0em;}.cls-14{letter-spacing:0em;}.cls-15{letter-spacing:0em;}.cls-16{font-size:3.28px;}.cls-105,.cls-16,.cls-31,.cls-52,.cls-79,.cls-91{font-family:Montserrat-Regular, Montserrat;}.cls-17{letter-spacing:-0.01em;}.cls-18{letter-spacing:-0.01em;}.cls-19,.cls-54,.cls-82,.cls-95{stroke:#fff;stroke-miterlimit:10;}.cls-19{stroke-width:0.62px;}.cls-20{font-size:6.51px;}.cls-21{letter-spacing:-0.06em;}.cls-22{letter-spacing:-0.01em;}.cls-23{letter-spacing:-0.01em;}.cls-24{letter-spacing:0em;}.cls-25{letter-spacing:-0.02em;}.cls-26{letter-spacing:0em;}.cls-27{font-size:4.88px;}.cls-28{font-size:5.42px;}.cls-29{letter-spacing:0em;}.cls-30{letter-spacing:-0.01em;}.cls-31,.cls-49{font-size:9.76px;}.cls-32{letter-spacing:-0.02em;}.cls-33{letter-spacing:0em;}.cls-34{letter-spacing:-0.01em;}.cls-35{letter-spacing:0.08em;}.cls-36{letter-spacing:-0.01em;}.cls-37{letter-spacing:0em;}.cls-38,.cls-48,.cls-49{font-family:Montserrat-Bold, Montserrat;font-weight:700;}.cls-39{letter-spacing:-0.02em;}.cls-40{letter-spacing:0.01em;}.cls-41{letter-spacing:-0.01em;}.cls-42{letter-spacing:0em;}.cls-43{letter-spacing:0.01em;}.cls-44{letter-spacing:-0.02em;}.cls-45{letter-spacing:0em;}.cls-46{letter-spacing:-0.01em;}.cls-47{letter-spacing:-0.01em;}.cls-48,.cls-50,.cls-71,.cls-78{font-size:5.49px;}.cls-50{letter-spacing:0em;}.cls-51{letter-spacing:-0.03em;}.cls-52{font-size:4.88px;}.cls-53{letter-spacing:-0.01em;}.cls-54{stroke-width:0.92px;}.cls-55,.cls-73{font-size:7.32px;}.cls-56,.cls-72{font-size:6.1px;}.cls-57{letter-spacing:-0.01em;}.cls-58{font-size:4.27px;}.cls-59{letter-spacing:-0.02em;}.cls-60{letter-spacing:-0.01em;}.cls-61{letter-spacing:0em;}.cls-62{letter-spacing:0em;}.cls-63{letter-spacing:0em;}.cls-64{letter-spacing:-0.01em;}.cls-65{letter-spacing:0em;}.cls-66,.cls-73{letter-spacing:-0.06em;}.cls-67{letter-spacing:0em;}.cls-68{letter-spacing:-0.01em;}.cls-69{letter-spacing:-0.02em;}.cls-70{letter-spacing:-0.02em;}.cls-74{letter-spacing:-0.06em;}.cls-75{letter-spacing:-0.02em;}.cls-76{letter-spacing:0.01em;}.cls-77{letter-spacing:-0.01em;}.cls-79{font-size:3.97px;}.cls-80{letter-spacing:-0.01em;}.cls-81{letter-spacing:-0.01em;}.cls-82{stroke-width:0.74px;}.cls-83{font-size:5.95px;}.cls-101,.cls-84{font-size:4.96px;}.cls-85{font-size:3.47px;}.cls-86{letter-spacing:-0.02em;}.cls-87{letter-spacing:-0.01em;}.cls-88{letter-spacing:0em;}.cls-89{letter-spacing:0em;}.cls-90{letter-spacing:0em;}.cls-91{font-size:4.61px;}.cls-92{letter-spacing:-0.01em;}.cls-93{letter-spacing:0em;}.cls-94{letter-spacing:-0.01em;}.cls-95{stroke-width:0.86px;}.cls-96{letter-spacing:-0.05em;}.cls-97{letter-spacing:-0.01em;}.cls-98{letter-spacing:-0.02em;}.cls-99{letter-spacing:-0.02em;}.cls-100{font-size:4.46px;}.cls-102{letter-spacing:0em;}.cls-103{letter-spacing:0em;}.cls-104{letter-spacing:0em;}.cls-105{font-size:9.12px;}.cls-106{letter-spacing:-0.01em;}.cls-107{letter-spacing:0em;}.cls-108{letter-spacing:-0.01em;}</style></defs><rect class="cls-1" width="1025.15" height="726.55"/><rect class="cls-2" x="58.7" y="38.94" width="196.13" height="659.66"/><rect class="cls-3" x="58.7" y="38.94" width="196.13" height="47.35"/><rect class="cls-3" x="58.7" y="187.03" width="196.13" height="47.35"/><circle class="cls-4" cx="85.6" cy="61.2" r="17.24"/><rect class="cls-5" x="58.7" y="86.29" width="196.13" height="101.01"/><rect class="cls-5" x="220.89" y="52.75" width="14.93" height="2.54" rx="1.21"/><rect class="cls-5" x="220.89" y="58.06" width="14.93" height="2.54" rx="1.21"/><rect class="cls-5" x="220.89" y="63.37" width="14.93" height="2.54" rx="1.21"/><path class="cls-3" d="M68.74,140.31l1.12-1.13a.89.89,0,0,0,0-1.26.9.9,0,0,0-1.27,0l-1.74,1.74a.93.93,0,0,0,0,1.29l1.74,1.75a.9.9,0,0,0,1.27-1.27Z"/><path class="cls-3" d="M244.5,140.31l-1.13,1.12a.9.9,0,0,0,1.27,1.27l1.75-1.75a.93.93,0,0,0,0-1.29l-1.75-1.74a.9.9,0,0,0-1.27,0,.89.89,0,0,0,0,1.26Z"/><circle class="cls-3" cx="151.27" cy="176.44" r="0.67"/><circle class="cls-3" cx="160.62" cy="176.44" r="0.67"/><circle class="cls-3" cx="155.95" cy="176.44" r="0.67"/><text class="cls-6" transform="translate(146.84 201.4)">About</text><text class="cls-7" transform="translate(117.81 212.45)">Lorem ipsum dolor sit amet, consectetuer <tspan x="2.17" y="4.92">adipiscing elit, sed diam nonummy nibh </tspan><tspan x="-0.91" y="9.85">euismod tincidunt ut laoreet dolore magna </tspan></text><rect class="cls-8" x="58.7" y="579.33" width="196.13" height="119.27"/><circle class="cls-4" cx="153.28" cy="607.12" r="21.56"/><circle class="cls-4" cx="136.48" cy="668.03" r="4"/><circle class="cls-4" cx="147.65" cy="668.03" r="4"/><circle class="cls-4" cx="158.81" cy="668.03" r="4"/><circle class="cls-4" cx="169.98" cy="668.03" r="4"/><text class="cls-9" transform="translate(140.37 690.66)">© <tspan class="cls-10" x="3.07" y="0">C</tspan><tspan x="5.1" y="0">o</tspan><tspan class="cls-11" x="6.96" y="0">p</tspan><tspan x="8.88" y="0">y</tspan><tspan class="cls-12" x="10.54" y="0">r</tspan><tspan x="11.74" y="0">ight </tspan><tspan class="cls-13" x="18.54" y="0">2</tspan><tspan class="cls-12" x="20.2" y="0">0</tspan><tspan class="cls-14" x="22.12" y="0">2</tspan><tspan class="cls-15" x="23.78" y="0">0</tspan></text><text class="cls-16" transform="translate(155.8 646.87)"><tspan class="cls-17">L</tspan><tspan x="1.91" y="0">o</tspan><tspan class="cls-18" x="3.97" y="0">r</tspan><tspan x="5.24" y="0">em</tspan></text><text class="cls-16" transform="translate(124.31 646.87)"><tspan class="cls-17">L</tspan><tspan x="1.91" y="0">o</tspan><tspan class="cls-18" x="3.97" y="0">r</tspan><tspan x="5.24" y="0">em</tspan></text><text class="cls-16" transform="translate(140.15 646.87)">Ipsum</text><text class="cls-16" transform="translate(171.63 646.87)">Ipsum</text><line class="cls-19" x1="136.87" y1="641.9" x2="136.87" y2="650.03"/><line class="cls-19" x1="153.14" y1="641.9" x2="153.14" y2="650.03"/><line class="cls-19" x1="169.42" y1="641.9" x2="169.42" y2="650.03"/><text class="cls-20" transform="translate(137.13 364.92)"><tspan class="cls-21">W</tspan><tspan x="7.08" y="0">e c</tspan><tspan class="cls-22" x="16.7" y="0">r</tspan><tspan class="cls-23" x="19.37" y="0">e</tspan><tspan class="cls-24" x="23.32" y="0">a</tspan><tspan class="cls-25" x="27.27" y="0">t</tspan><tspan class="cls-26" x="29.91" y="0">e</tspan></text><text class="cls-27" transform="translate(124.85 374.44)">Lorem ipsum dolor sit amet, <tspan x="0.56" y="5.85">consectetuer adipiscing elit, </tspan><tspan x="20.82" y="12.36">sed diam</tspan><tspan class="cls-28" x="40.84" y="12.36"> </tspan></text><rect class="cls-3" x="142.93" y="325.9" width="23.73" height="23.73"/><text class="cls-20" transform="translate(136.95 287.46)"><tspan class="cls-21">W</tspan><tspan x="7.08" y="0">e </tspan><tspan class="cls-21" x="12.93" y="0">T</tspan><tspan class="cls-23" x="16.48" y="0">e</tspan><tspan class="cls-29" x="20.43" y="0">a</tspan><tspan class="cls-30" x="24.41" y="0">c</tspan><tspan x="28.16" y="0">h</tspan></text><text class="cls-27" transform="translate(124.85 296.94)">Lorem ipsum dolor sit amet, <tspan x="0.56" y="5.85">consectetuer adipiscing elit, </tspan><tspan x="20.82" y="12.36">sed diam</tspan><tspan class="cls-28" x="40.84" y="12.36"> </tspan></text><rect class="cls-3" x="142.63" y="248.4" width="23.73" height="23.73"/><text class="cls-20" transform="translate(141.41 439.76)"><tspan class="cls-21">W</tspan><tspan x="7.08" y="0">e Sell</tspan></text><text class="cls-27" transform="translate(124.85 449.19)">Lorem ipsum dolor sit amet, <tspan x="0.56" y="5.85">consectetuer adipiscing elit, </tspan><tspan x="20.82" y="12.36">sed diam</tspan><tspan class="cls-28" x="40.84" y="12.36"> </tspan></text><rect class="cls-3" x="143.82" y="400.65" width="23.73" height="23.73"/><rect class="cls-3" x="58.7" y="482.76" width="196.13" height="96.57"/><rect class="cls-5" x="116.36" y="491.9" width="76.93" height="76.93" rx="2.07"/><rect class="cls-3" x="171.02" y="76.85" width="72.72" height="46.23" rx="2.07"/><path class="cls-5" d="M68.74,529.49l1.12-1.12a.9.9,0,0,0-1.27-1.27l-1.74,1.75a.84.84,0,0,0-.26.64.86.86,0,0,0,.26.65l1.74,1.74a.9.9,0,0,0,1.27,0,.89.89,0,0,0,0-1.26Z"/><path class="cls-5" d="M244.5,529.49l-1.13,1.13a.89.89,0,0,0,0,1.26.9.9,0,0,0,1.27,0l1.75-1.74a.94.94,0,0,0,.26-.65.92.92,0,0,0-.26-.64l-1.75-1.75a.9.9,0,0,0-1.27,1.27Z"/><text class="cls-31" transform="translate(883.77 671.03)"><tspan class="cls-32">W</tspan><tspan class="cls-33" x="10.67" y="0">i</tspan><tspan class="cls-34" x="13.3" y="0">r</tspan><tspan x="17.09" y="0">e</tspan><tspan class="cls-35" x="22.99" y="0">f</tspan><tspan class="cls-36" x="27.08" y="0">r</tspan><tspan x="30.9" y="0">a</tspan><tspan class="cls-37" x="36.66" y="0">m</tspan><tspan x="47.04" y="0">es - Mobile</tspan><tspan class="cls-38"><tspan x="3.61" y="11.72">Miles</tspan><tspan class="cls-39" x="30.16" y="11.72">t</tspan><tspan x="34.24" y="11.72">o</tspan><tspan class="cls-40" x="40.64" y="11.72">n</tspan><tspan x="47.44" y="11.72">e </tspan><tspan class="cls-41" x="56.37" y="11.72">P</tspan><tspan class="cls-36" x="63.42" y="11.72">r</tspan><tspan class="cls-42" x="67.54" y="11.72">oje</tspan><tspan class="cls-43" x="83.09" y="11.72">c</tspan><tspan x="88.94" y="11.72">t 1</tspan><tspan x="-85.49" y="23.43">User </tspan><tspan class="cls-44" x="-59.47" y="23.43">C</tspan><tspan x="-52.5" y="23.43">ent</tspan><tspan class="cls-45" x="-35.35" y="23.43">r</tspan><tspan class="cls-33" x="-31.18" y="23.43">ic </tspan><tspan class="cls-41" x="-19.7" y="23.43">F</tspan><tspan class="cls-46" x="-13.56" y="23.43">r</tspan><tspan x="-9.44" y="23.43">on</tspan><tspan class="cls-39" x="3.7" y="23.43">t</tspan><tspan x="7.78" y="23.43">e</tspan><tspan class="cls-40" x="13.94" y="23.43">n</tspan><tspan x="20.75" y="23.43">d D</tspan><tspan class="cls-41" x="38.33" y="23.43">e</tspan><tspan class="cls-47" x="44.4" y="23.43">v</tspan><tspan x="50.09" y="23.43">elop</tspan><tspan class="cls-40" x="72.32" y="23.43">m</tspan><tspan x="82.63" y="23.43">ent</tspan></tspan><tspan class="cls-48"><tspan x="98.23" y="30.03"> </tspan></tspan></text><text class="cls-49"><tspan x="263.54" y="698.49">Mobile - main </tspan><tspan class="cls-36" x="336.05" y="698.49">p</tspan><tspan class="cls-40" x="342.7" y="698.49">a</tspan><tspan x="348.78" y="698.49">ge</tspan><tspan class="cls-50" x="361.78" y="698.49"> </tspan></text><text class="cls-49"><tspan class="cls-51" x="283.87" y="542.07">T</tspan><tspan x="289.64" y="542.07">ablet - main </tspan><tspan class="cls-36" x="353.76" y="542.07">p</tspan><tspan class="cls-40" x="360.41" y="542.07">a</tspan><tspan x="366.49" y="542.07">ge</tspan><tspan class="cls-50" x="379.49" y="542.07"> </tspan></text><rect class="cls-2" x="548.82" y="38.21" width="291.72" height="570.67"/><rect class="cls-3" x="548.82" y="38.21" width="291.72" height="70.43"/><rect class="cls-3" x="548.82" y="258.47" width="291.72" height="70.43"/><rect class="cls-2" x="819.75" y="73.42" width="9.65" height="9.65" rx="1.69"/><rect class="cls-2" x="760.76" y="73.42" width="55.76" height="9.65" rx="1.69"/><circle class="cls-4" cx="588.83" cy="71.31" r="25.64"/><rect class="cls-5" x="548.82" y="108.63" width="291.72" height="150.24"/><path class="cls-3" d="M563.75,189l1.67-1.67a1.33,1.33,0,1,0-1.88-1.89l-2.6,2.6a1.35,1.35,0,0,0-.39,1,1.37,1.37,0,0,0,.39,1l2.6,2.59a1.33,1.33,0,1,0,1.88-1.88Z"/><path class="cls-3" d="M825.17,189l-1.67,1.67a1.33,1.33,0,0,0,1.88,1.88l2.6-2.59a1.37,1.37,0,0,0,.39-1,1.35,1.35,0,0,0-.39-1l-2.6-2.6a1.33,1.33,0,0,0-1.88,1.89Z"/><circle class="cls-3" cx="686.51" cy="242.71" r="1"/><circle class="cls-3" cx="700.41" cy="242.71" r="1"/><circle class="cls-3" cx="693.46" cy="242.71" r="1"/><text class="cls-52" transform="translate(763.24 80.29)"><tspan class="cls-53">L</tspan><tspan x="2.84" y="0">o</tspan><tspan class="cls-34" x="5.9" y="0">r</tspan><tspan x="7.79" y="0">em</tspan></text><text class="cls-52" transform="translate(706.02 80.29)"><tspan class="cls-53">L</tspan><tspan x="2.84" y="0">o</tspan><tspan class="cls-34" x="5.9" y="0">r</tspan><tspan x="7.79" y="0">em</tspan></text><text class="cls-52" transform="translate(659.19 80.29)"><tspan class="cls-53">L</tspan><tspan x="2.84" y="0">o</tspan><tspan class="cls-34" x="5.9" y="0">r</tspan><tspan x="7.79" y="0">em</tspan></text><text class="cls-52" transform="translate(682.75 80.29)">Ipsum</text><text class="cls-52" transform="translate(729.58 80.29)">Ipsum</text><line class="cls-54" x1="677.86" y1="73.42" x2="677.86" y2="85.51"/><line class="cls-54" x1="702.07" y1="73.42" x2="702.07" y2="85.51"/><line class="cls-54" x1="726.28" y1="73.42" x2="726.28" y2="85.51"/><text class="cls-55" transform="translate(679.92 279.83)">About</text><text class="cls-56" transform="translate(636.75 296.27)">Lorem ipsum dolor sit amet, consectetuer <tspan x="3.23" y="7.32">adipiscing elit, sed diam nonummy nibh </tspan><tspan x="-1.35" y="14.65">euismod tincidunt ut laoreet dolore magna </tspan></text><rect class="cls-8" x="548.82" y="538.45" width="291.72" height="70.43"/><circle class="cls-4" cx="584.31" cy="574.73" r="21.13"/><circle class="cls-4" cx="746.69" cy="587.22" r="5.94"/><circle class="cls-4" cx="763.3" cy="587.22" r="5.94"/><circle class="cls-4" cx="779.91" cy="587.22" r="5.94"/><circle class="cls-4" cx="796.51" cy="587.22" r="5.94"/><rect class="cls-4" x="790.63" y="561.51" width="25.29" height="9.65" rx="1.69"/><rect class="cls-2" x="731.98" y="561.51" width="55.76" height="9.65" rx="1.69"/><text class="cls-52" transform="translate(734.45 568.38)">Email <tspan class="cls-57" x="15.23" y="0">A</tspan><tspan x="18.71" y="0">dd</tspan><tspan class="cls-34" x="25.33" y="0">r</tspan><tspan x="27.22" y="0">ess</tspan></text><text class="cls-52" transform="translate(793.01 568.38)">Sign up!</text><text class="cls-58" transform="translate(621.9 592.14)">© <tspan class="cls-59" x="4.57" y="0">C</tspan><tspan x="7.59" y="0">o</tspan><tspan class="cls-60" x="10.35" y="0">p</tspan><tspan class="cls-61" x="13.21" y="0">y</tspan><tspan class="cls-62" x="15.68" y="0">r</tspan><tspan x="17.45" y="0">ight </tspan><tspan class="cls-63" x="27.57" y="0">2</tspan><tspan class="cls-64" x="30.04" y="0">0</tspan><tspan class="cls-65" x="32.9" y="0">2</tspan><tspan x="35.37" y="0">0</tspan></text><text class="cls-52" transform="translate(668.17 567.68)"><tspan class="cls-53">L</tspan><tspan x="2.84" y="0">o</tspan><tspan class="cls-34" x="5.9" y="0">r</tspan><tspan x="7.79" y="0">em</tspan></text><text class="cls-52" transform="translate(621.34 567.68)"><tspan class="cls-53">L</tspan><tspan x="2.84" y="0">o</tspan><tspan class="cls-34" x="5.9" y="0">r</tspan><tspan x="7.79" y="0">em</tspan></text><text class="cls-52" transform="translate(644.9 567.68)">Ipsum</text><text class="cls-52" transform="translate(691.73 567.68)">Ipsum</text><line class="cls-54" x1="640.01" y1="560.29" x2="640.01" y2="572.38"/><line class="cls-54" x1="664.22" y1="560.29" x2="664.22" y2="572.38"/><line class="cls-54" x1="688.43" y1="560.29" x2="688.43" y2="572.38"/><text class="cls-55" transform="translate(583.32 394.65)"><tspan class="cls-66">W</tspan><tspan class="cls-67" x="7.98" y="0">e c</tspan><tspan class="cls-68" x="18.81" y="0">r</tspan><tspan class="cls-69" x="21.81" y="0">e</tspan><tspan x="26.25" y="0">a</tspan><tspan class="cls-70" x="30.7" y="0">t</tspan><tspan x="33.67" y="0">e</tspan></text><text class="cls-71" transform="translate(569.5 405.37)">Lorem ipsum dolor sit amet, <tspan x="0.63" y="6.59">consectetuer adipiscing elit, </tspan><tspan x="23.44" y="13.91">sed diam</tspan><tspan class="cls-72" x="45.98" y="13.91"> </tspan></text><text class="cls-73" transform="translate(671.98 394.7)">W<tspan class="cls-67" x="7.98" y="0">e </tspan><tspan class="cls-74" x="14.55" y="0">T</tspan><tspan class="cls-75" x="18.56" y="0">e</tspan><tspan class="cls-76" x="23" y="0">a</tspan><tspan class="cls-77" x="27.48" y="0">c</tspan><tspan class="cls-67" x="31.7" y="0">h</tspan></text><text class="cls-71" transform="translate(658.35 405.37)">Lorem ipsum dolor sit amet, <tspan x="0.63" y="6.59">consectetuer adipiscing elit, </tspan><tspan x="23.44" y="13.91">sed diam</tspan><tspan class="cls-72" x="45.98" y="13.91"> </tspan></text><text class="cls-73" transform="translate(765.85 394.75)">W<tspan class="cls-67" x="7.98" y="0">e Sell</tspan></text><text class="cls-71" transform="translate(747.2 405.37)">Lorem ipsum dolor sit amet, <tspan x="0.63" y="6.59">consectetuer adipiscing elit, </tspan><tspan x="23.44" y="13.91">sed diam</tspan><tspan class="cls-72" x="45.98" y="13.91"> </tspan></text><rect class="cls-3" x="589.86" y="350.73" width="26.71" height="26.71"/><rect class="cls-3" x="678.37" y="350.73" width="26.71" height="26.71"/><rect class="cls-3" x="768.56" y="350.73" width="26.71" height="26.71"/><rect class="cls-3" x="548.82" y="433.15" width="291.72" height="105.3"/><rect class="cls-5" x="657.94" y="451.92" width="68.76" height="68.76" rx="2.07"/><rect class="cls-5" x="734.3" y="451.92" width="68.76" height="68.76" rx="2.07"/><rect class="cls-5" x="581.58" y="451.92" width="68.76" height="68.76" rx="2.07"/><path class="cls-5" d="M563.75,486.3l1.67-1.67a1.33,1.33,0,1,0-1.88-1.89l-2.6,2.6a1.35,1.35,0,0,0-.39,1,1.37,1.37,0,0,0,.39,1l2.6,2.59a1.33,1.33,0,1,0,1.88-1.88Z"/><path class="cls-5" d="M825.17,486.3,823.5,488a1.33,1.33,0,0,0,1.88,1.88l2.6-2.59a1.37,1.37,0,0,0,.39-1,1.35,1.35,0,0,0-.39-1l-2.6-2.6a1.33,1.33,0,0,0-1.88,1.89Z"/><text class="cls-49"><tspan x="547.22" y="633.08">Desk</tspan><tspan class="cls-39" x="573.07" y="633.08">t</tspan><tspan x="577.15" y="633.08">op - Main </tspan><tspan class="cls-36" x="627.38" y="633.08">p</tspan><tspan class="cls-40" x="634.03" y="633.08">a</tspan><tspan x="640.11" y="633.08">ge</tspan><tspan class="cls-78" x="653.11" y="633.08"> </tspan></text><rect class="cls-2" x="280.81" y="38.05" width="237.03" height="463.68"/><rect class="cls-3" x="280.81" y="38.05" width="237.03" height="57.22"/><rect class="cls-3" x="280.81" y="217.02" width="237.03" height="57.22"/><circle class="cls-4" cx="313.31" cy="64.95" r="20.84"/><rect class="cls-5" x="280.81" y="95.28" width="237.03" height="122.07"/><path class="cls-3" d="M292.94,160.55l1.36-1.35a1.09,1.09,0,0,0-1.54-1.54l-2.1,2.11a1.09,1.09,0,0,0-.32.78,1.07,1.07,0,0,0,.32.78l2.1,2.11a1.1,1.1,0,0,0,1.54,0,1.09,1.09,0,0,0,0-1.53Z"/><circle class="cls-3" cx="392.68" cy="204.22" r="0.81"/><circle class="cls-3" cx="403.98" cy="204.22" r="0.81"/><circle class="cls-3" cx="398.33" cy="204.22" r="0.81"/><text class="cls-79" transform="translate(472.73 72.24)"><tspan class="cls-80">L</tspan><tspan x="2.3" y="0">o</tspan><tspan class="cls-81" x="4.79" y="0">r</tspan><tspan x="6.33" y="0">em</tspan></text><text class="cls-79" transform="translate(434.68 72.24)"><tspan class="cls-80">L</tspan><tspan x="2.3" y="0">o</tspan><tspan class="cls-81" x="4.79" y="0">r</tspan><tspan x="6.33" y="0">em</tspan></text><text class="cls-79" transform="translate(453.82 72.24)">Ipsum</text><text class="cls-79" transform="translate(491.87 72.24)">Ipsum</text><line class="cls-82" x1="449.85" y1="66.67" x2="449.85" y2="76.49"/><line class="cls-82" x1="469.52" y1="66.67" x2="469.52" y2="76.49"/><line class="cls-82" x1="489.19" y1="66.67" x2="489.19" y2="76.49"/><text class="cls-83" transform="translate(387.33 234.38)">About</text><text class="cls-84" transform="translate(352.25 247.74)">Lorem ipsum dolor sit amet, consectetuer <tspan x="2.63" y="5.95">adipiscing elit, sed diam nonummy nibh </tspan><tspan x="-1.1" y="11.9">euismod tincidunt ut laoreet dolore magna </tspan></text><rect class="cls-8" x="280.81" y="444.51" width="237.03" height="75.96"/><circle class="cls-4" cx="460.81" cy="475.87" r="4.83"/><circle class="cls-4" cx="474.31" cy="475.87" r="4.83"/><circle class="cls-4" cx="487.8" cy="475.87" r="4.83"/><circle class="cls-4" cx="501.29" cy="475.87" r="4.83"/><text class="cls-85" transform="translate(380.89 512.75)">© <tspan class="cls-86" x="3.71" y="0">C</tspan><tspan x="6.17" y="0">o</tspan><tspan class="cls-87" x="8.41" y="0">p</tspan><tspan class="cls-88" x="10.74" y="0">y</tspan><tspan class="cls-89" x="12.74" y="0">r</tspan><tspan x="14.18" y="0">ight </tspan><tspan class="cls-90" x="22.4" y="0">2</tspan><tspan class="cls-89" x="24.41" y="0">0</tspan><tspan class="cls-90" x="26.73" y="0">2</tspan><tspan x="28.74" y="0">0</tspan></text><text class="cls-91" transform="translate(401.22 477.34)"><tspan class="cls-92">L</tspan><tspan class="cls-93" x="2.68" y="0">o</tspan><tspan class="cls-94" x="5.57" y="0">r</tspan><tspan x="7.36" y="0">em</tspan></text><text class="cls-91" transform="translate(357.01 477.34)"><tspan class="cls-92">L</tspan><tspan class="cls-93" x="2.68" y="0">o</tspan><tspan class="cls-94" x="5.57" y="0">r</tspan><tspan x="7.36" y="0">em</tspan></text><text class="cls-91" transform="translate(379.25 477.34)">Ipsum</text><text class="cls-91" transform="translate(423.46 477.34)">Ipsum</text><line class="cls-95" x1="374.64" y1="470.37" x2="374.64" y2="481.78"/><line class="cls-95" x1="397.49" y1="470.37" x2="397.49" y2="481.78"/><line class="cls-95" x1="420.35" y1="470.37" x2="420.35" y2="481.78"/><text class="cls-83" transform="translate(308.84 327.68)"><tspan class="cls-96">W</tspan><tspan x="6.48" y="0">e c</tspan><tspan class="cls-97" x="15.28" y="0">r</tspan><tspan class="cls-98" x="17.72" y="0">e</tspan><tspan x="21.33" y="0">a</tspan><tspan class="cls-99" x="24.94" y="0">t</tspan><tspan x="27.36" y="0">e</tspan></text><text class="cls-100" transform="translate(297.61 336.39)">Lorem ipsum dolor sit amet, <tspan x="0.51" y="5.36">consectetuer adipiscing elit, </tspan><tspan x="19.05" y="11.31">sed diam</tspan><tspan class="cls-101" x="37.36" y="11.31"> </tspan></text><text class="cls-83" transform="translate(380.87 327.72)"><tspan class="cls-96">W</tspan><tspan x="6.48" y="0">e </tspan><tspan class="cls-96" x="11.82" y="0">T</tspan><tspan class="cls-98" x="15.08" y="0">e</tspan><tspan class="cls-102" x="18.69" y="0">a</tspan><tspan class="cls-103" x="22.33" y="0">c</tspan><tspan class="cls-104" x="25.76" y="0">h</tspan></text><text class="cls-100" transform="translate(369.8 336.39)">Lorem ipsum dolor sit amet, <tspan x="0.51" y="5.36">consectetuer adipiscing elit, </tspan><tspan x="19.05" y="11.31">sed diam</tspan><tspan class="cls-101" x="37.36" y="11.31"> </tspan></text><text class="cls-83" transform="translate(457.15 327.76)"><tspan class="cls-96">W</tspan><tspan x="6.48" y="0">e Sell</tspan></text><text class="cls-100" transform="translate(442 336.39)">Lorem ipsum dolor sit amet, <tspan x="0.51" y="5.36">consectetuer adipiscing elit, </tspan><tspan x="19.05" y="11.31">sed diam</tspan><tspan class="cls-101" x="37.36" y="11.31"> </tspan></text><rect class="cls-3" x="314.15" y="291.99" width="21.7" height="21.7"/><rect class="cls-3" x="386.07" y="291.99" width="21.7" height="21.7"/><rect class="cls-3" x="459.35" y="291.99" width="21.7" height="21.7"/><rect class="cls-3" x="280.81" y="358.96" width="237.03" height="85.56"/><rect class="cls-5" x="399.7" y="369.3" width="66.8" height="66.8" rx="2.07"/><rect class="cls-5" x="325.52" y="369.3" width="66.8" height="66.8" rx="2.07"/><path class="cls-5" d="M292.94,402.14l1.36-1.35a1.09,1.09,0,0,0-1.54-1.54l-2.1,2.11a1.09,1.09,0,0,0-.32.78,1.07,1.07,0,0,0,.32.78l2.1,2.11a1.1,1.1,0,0,0,1.54,0,1.09,1.09,0,0,0,0-1.53Z"/><path class="cls-5" d="M505.35,402.14,504,403.5a1.08,1.08,0,0,0,1.53,1.53l2.11-2.11a1.07,1.07,0,0,0,.32-.78,1.09,1.09,0,0,0-.32-.78l-2.11-2.11a1.09,1.09,0,0,0-1.53,0,1.1,1.1,0,0,0,0,1.54Z"/><text class="cls-105" transform="translate(191.79 82.26)"><tspan class="cls-106">L</tspan><tspan class="cls-107" x="5.3" y="0">o</tspan><tspan class="cls-108" x="11.01" y="0">r</tspan><tspan x="14.55" y="0">em</tspan></text><text class="cls-105" transform="translate(191.79 93.74)"><tspan class="cls-106">L</tspan><tspan class="cls-107" x="5.3" y="0">o</tspan><tspan class="cls-108" x="11.01" y="0">r</tspan><tspan x="14.55" y="0">em</tspan></text><text class="cls-105" transform="translate(191.79 105.21)"><tspan class="cls-106">L</tspan><tspan class="cls-107" x="5.3" y="0">o</tspan><tspan class="cls-108" x="11.01" y="0">r</tspan><tspan x="14.55" y="0">em</tspan></text><text class="cls-105" transform="translate(191.79 116.69)"><tspan class="cls-106">L</tspan><tspan class="cls-107" x="5.3" y="0">o</tspan><tspan class="cls-108" x="11.01" y="0">r</tspan><tspan x="14.55" y="0">em</tspan></text><path class="cls-3" d="M507.56,157.35l-1.12,1.12a.9.9,0,1,0,1.27,1.27l1.74-1.75a.93.93,0,0,0,0-1.29L507.71,155a.9.9,0,0,0-1.27,0,.89.89,0,0,0,0,1.26Z"/><circle class="cls-4" cx="313.31" cy="478.78" r="20.84"/></svg>