<svg id="Layer_1" data-name="Layer 1" xmlns="http://www.w3.org/2000/svg" viewBox="0 0 1024 726.55"><defs><style>.cls-1{fill:#a5a4c0;}.cls-2,.cls-40{font-size:9.78px;}.cls-2,.cls-8{fill:#fff;}.cls-2,.cls-44,.cls-51{font-family:Montserrat-Bold, Montserrat;font-weight:700;}.cls-3{letter-spacing:-0.01em;}.cls-4{letter-spacing:0.01em;}.cls-5{letter-spacing:-0.01em;}.cls-6{letter-spacing:0.01em;}.cls-7{letter-spacing:0em;}.cls-9{fill:#e9e8e8;}.cls-10{fill:#b2b2b2;}.cls-11{font-size:4.89px;}.cls-11,.cls-14,.cls-19,.cls-26,.cls-27,.cls-40{fill:#1e1e1c;}.cls-11,.cls-40{font-family:Montserrat-Regular, Montserrat;}.cls-12{letter-spacing:-0.01em;}.cls-13{letter-spacing:-0.01em;}.cls-14{stroke:#fff;stroke-miterlimit:10;stroke-width:0.92px;}.cls-15{fill:#d1d1d1;}.cls-16{letter-spacing:0em;}.cls-17{letter-spacing:0em;}.cls-18{letter-spacing:-0.01em;}.cls-19{font-size:4.28px;}.cls-19,.cls-27{font-family:Montserrat-SemiBold, Montserrat;font-weight:600;}.cls-20{letter-spacing:-0.02em;}.cls-21{letter-spacing:0em;}.cls-22{letter-spacing:-0.01em;}.cls-23{letter-spacing:-0.01em;}.cls-24{letter-spacing:0em;}.cls-25{letter-spacing:0em;}.cls-26{font-size:6.11px;font-family:OpenSans-Light, Open Sans;font-weight:300;}.cls-27{font-size:7.34px;}.cls-28{fill:#868686;}.cls-29{letter-spacing:-0.01em;}.cls-30{letter-spacing:-0.02em;}.cls-31{letter-spacing:-0.01em;}.cls-32{letter-spacing:0.01em;}.cls-33{letter-spacing:-0.01em;}.cls-34{letter-spacing:0em;}.cls-35{letter-spacing:-0.02em;}.cls-36{letter-spacing:0em;}.cls-37{letter-spacing:0em;}.cls-38{letter-spacing:-0.01em;}.cls-39{letter-spacing:0em;}.cls-41{letter-spacing:-0.02em;}.cls-42{letter-spacing:0.08em;}.cls-43{letter-spacing:0em;}.cls-45{letter-spacing:-0.02em;}.cls-46{letter-spacing:-0.01em;}.cls-47{letter-spacing:0em;}.cls-48{letter-spacing:0.01em;}.cls-49{letter-spacing:-0.02em;}.cls-50{letter-spacing:0em;}.cls-51{font-size:5.5px;}</style></defs><rect class="cls-1" y="-1.67" width="1024" height="727.9"/><text class="cls-2"><tspan x="35.5" y="599.11">About us </tspan><tspan class="cls-3" x="84.57" y="599.11">p</tspan><tspan class="cls-4" x="91.24" y="599.11">a</tspan><tspan x="97.33" y="599.11">ge</tspan></text><text class="cls-2"><tspan x="375.86" y="417.68">D</tspan><tspan class="cls-5" x="383.94" y="417.68">o</tspan><tspan x="390.2" y="417.68">wnl</tspan><tspan class="cls-3" x="409.07" y="417.68">o</tspan><tspan class="cls-4" x="415.39" y="417.68">a</tspan><tspan x="421.49" y="417.68">dable Goodies </tspan><tspan class="cls-3" x="497.13" y="417.68">p</tspan><tspan class="cls-6" x="503.79" y="417.68">a</tspan><tspan class="cls-7" x="509.89" y="417.68">ge</tspan></text><rect class="cls-8" x="33.37" y="37.35" width="292.25" height="541.41"/><rect class="cls-9" x="33.37" y="37.35" width="292.25" height="70.56"/><rect class="cls-8" x="304.8" y="72.63" width="9.67" height="9.67" rx="1.69"/><rect class="cls-8" x="245.71" y="72.63" width="55.86" height="9.67" rx="1.69"/><circle class="cls-10" cx="73.45" cy="70.51" r="25.69"/><text class="cls-11" transform="translate(248.18 79.51)"><tspan class="cls-12">L</tspan><tspan x="2.84" y="0">o</tspan><tspan class="cls-13" x="5.91" y="0">r</tspan><tspan x="7.81" y="0">em</tspan></text><text class="cls-11" transform="translate(190.86 79.51)"><tspan class="cls-12">L</tspan><tspan x="2.84" y="0">o</tspan><tspan class="cls-13" x="5.91" y="0">r</tspan><tspan x="7.81" y="0">em</tspan></text><text class="cls-11" transform="translate(143.95 79.51)"><tspan class="cls-12">L</tspan><tspan x="2.84" y="0">o</tspan><tspan class="cls-13" x="5.91" y="0">r</tspan><tspan x="7.81" y="0">em</tspan></text><text class="cls-11" transform="translate(167.55 79.51)">Ipsum</text><text class="cls-11" transform="translate(214.46 79.51)">Ipsum</text><line class="cls-14" x1="162.65" y1="72.63" x2="162.65" y2="84.74"/><line class="cls-14" x1="186.91" y1="72.63" x2="186.91" y2="84.74"/><line class="cls-14" x1="211.16" y1="72.63" x2="211.16" y2="84.74"/><rect class="cls-15" x="33.37" y="508.21" width="292.25" height="70.56"/><circle class="cls-10" cx="68.93" cy="544.56" r="21.17"/><circle class="cls-10" cx="231.61" cy="557.06" r="5.95"/><circle class="cls-10" cx="248.25" cy="557.06" r="5.95"/><circle class="cls-10" cx="264.88" cy="557.06" r="5.95"/><circle class="cls-10" cx="281.52" cy="557.06" r="5.95"/><rect class="cls-10" x="275.63" y="531.31" width="25.33" height="9.67" rx="1.69"/><rect class="cls-8" x="216.87" y="531.31" width="55.86" height="9.67" rx="1.69"/><text class="cls-11" transform="translate(219.34 538.19)">Email <tspan class="cls-16" x="15.26" y="0">A</tspan><tspan class="cls-17" x="18.74" y="0">dd</tspan><tspan class="cls-18" x="25.38" y="0">r</tspan><tspan x="27.27" y="0">ess</tspan></text><text class="cls-11" transform="translate(278.01 538.19)">Sign up!</text><text class="cls-19" transform="translate(106.58 562)">© <tspan class="cls-20" x="4.58" y="0">C</tspan><tspan class="cls-21" x="7.61" y="0">o</tspan><tspan class="cls-22" x="10.37" y="0">p</tspan><tspan x="13.24" y="0">y</tspan><tspan class="cls-23" x="15.71" y="0">r</tspan><tspan x="17.49" y="0">ight </tspan><tspan class="cls-24" x="27.62" y="0">2</tspan><tspan class="cls-16" x="30.1" y="0">0</tspan><tspan class="cls-24" x="32.96" y="0">2</tspan><tspan class="cls-25" x="35.44" y="0">0</tspan></text><text class="cls-11" transform="translate(152.94 537.49)"><tspan class="cls-12">L</tspan><tspan x="2.84" y="0">o</tspan><tspan class="cls-13" x="5.91" y="0">r</tspan><tspan x="7.81" y="0">em</tspan></text><text class="cls-11" transform="translate(106.03 537.49)"><tspan class="cls-12">L</tspan><tspan x="2.84" y="0">o</tspan><tspan class="cls-13" x="5.91" y="0">r</tspan><tspan x="7.81" y="0">em</tspan></text><text class="cls-11" transform="translate(129.62 537.49)">Ipsum</text><text class="cls-11" transform="translate(176.54 537.49)">Ipsum</text><line class="cls-14" x1="124.73" y1="530.09" x2="124.73" y2="542.2"/><line class="cls-14" x1="148.98" y1="530.09" x2="148.98" y2="542.2"/><line class="cls-14" x1="173.24" y1="530.09" x2="173.24" y2="542.2"/><rect class="cls-15" x="33.37" y="107.86" width="292.25" height="161.72"/><text class="cls-26" transform="translate(209.47 168.87)">Lorem ipsum dolor sit amet, <tspan x="-12.64" y="7.34">consectetuer adipiscing elit, sed diam </tspan><tspan x="-11.5" y="14.67">nonummy nibh euismod tincidunt ut </tspan><tspan x="-10.67" y="22.01" xml:space="preserve">laoreet dolore magna  Lorem ipsum </tspan><tspan x="-14.24" y="29.35">dolor sit amet, consectetuer adipiscing </tspan><tspan x="-13.85" y="36.68">elit, sed diam nonummy nibh euismod </tspan><tspan x="-7.45" y="44.02">tincidunt ut laoreet dolore magna </tspan><tspan x="-13.03" y="51.36">aliquam erat volutpat. Ut wisi enim ad </tspan><tspan x="-17.22" y="58.69">minim veniam, quis nostrud exerci tation </tspan></text><text class="cls-27" transform="translate(231.32 156.07)">About us</text><rect class="cls-28" x="216.4" y="149.19" width="7.08" height="7.08"/><rect class="cls-28" x="52.6" y="126.05" width="115.5" height="124.61" rx="2.07"/><rect class="cls-8" x="376.78" y="37.35" width="292.25" height="361.42"/><rect class="cls-9" x="376.78" y="37.35" width="292.25" height="70.56"/><rect class="cls-9" x="376.78" y="166.86" width="292.25" height="161.72"/><rect class="cls-8" x="648.21" y="72.63" width="9.67" height="9.67" rx="1.69"/><rect class="cls-8" x="589.12" y="72.63" width="55.86" height="9.67" rx="1.69"/><circle class="cls-10" cx="416.86" cy="70.51" r="25.69"/><text class="cls-11" transform="translate(591.59 79.51)"><tspan class="cls-12">L</tspan><tspan x="2.84" y="0">o</tspan><tspan class="cls-13" x="5.91" y="0">r</tspan><tspan x="7.81" y="0">em</tspan></text><text class="cls-11" transform="translate(534.28 79.51)"><tspan class="cls-12">L</tspan><tspan x="2.84" y="0">o</tspan><tspan class="cls-13" x="5.91" y="0">r</tspan><tspan x="7.81" y="0">em</tspan></text><text class="cls-11" transform="translate(487.36 79.51)"><tspan class="cls-12">L</tspan><tspan x="2.84" y="0">o</tspan><tspan class="cls-13" x="5.91" y="0">r</tspan><tspan x="7.81" y="0">em</tspan></text><text class="cls-11" transform="translate(510.96 79.51)">Ipsum</text><text class="cls-11" transform="translate(557.87 79.51)">Ipsum</text><line class="cls-14" x1="506.06" y1="72.63" x2="506.06" y2="84.74"/><line class="cls-14" x1="530.32" y1="72.63" x2="530.32" y2="84.74"/><line class="cls-14" x1="554.57" y1="72.63" x2="554.57" y2="84.74"/><text class="cls-26" transform="translate(429.07 141.08)">Lorem ipsum dolor sit amet, consectetuer adipiscing elit, sed diam <tspan x="10.21" y="7.34">nonummy nibh euismod tincidunt ut laoreet dolore magna </tspan></text><rect class="cls-15" x="376.78" y="328.21" width="292.25" height="70.56"/><circle class="cls-10" cx="412.34" cy="364.56" r="21.17"/><circle class="cls-10" cx="575.02" cy="377.07" r="5.95"/><circle class="cls-10" cx="591.66" cy="377.07" r="5.95"/><circle class="cls-10" cx="608.29" cy="377.07" r="5.95"/><circle class="cls-10" cx="624.93" cy="377.07" r="5.95"/><rect class="cls-10" x="619.04" y="351.32" width="25.33" height="9.67" rx="1.69"/><rect class="cls-8" x="560.28" y="351.32" width="55.86" height="9.67" rx="1.69"/><text class="cls-11" transform="translate(562.76 358.19)">Email <tspan class="cls-16" x="15.26" y="0">A</tspan><tspan class="cls-17" x="18.74" y="0">dd</tspan><tspan class="cls-18" x="25.38" y="0">r</tspan><tspan x="27.27" y="0">ess</tspan></text><text class="cls-11" transform="translate(621.42 358.19)">Sign up!</text><text class="cls-19" transform="translate(450 382)">© <tspan class="cls-20" x="4.58" y="0">C</tspan><tspan class="cls-21" x="7.61" y="0">o</tspan><tspan class="cls-22" x="10.37" y="0">p</tspan><tspan x="13.24" y="0">y</tspan><tspan class="cls-23" x="15.71" y="0">r</tspan><tspan x="17.49" y="0">ight </tspan><tspan class="cls-24" x="27.62" y="0">2</tspan><tspan class="cls-16" x="30.1" y="0">0</tspan><tspan class="cls-24" x="32.96" y="0">2</tspan><tspan class="cls-25" x="35.44" y="0">0</tspan></text><text class="cls-11" transform="translate(496.35 357.5)"><tspan class="cls-12">L</tspan><tspan x="2.84" y="0">o</tspan><tspan class="cls-13" x="5.91" y="0">r</tspan><tspan x="7.81" y="0">em</tspan></text><text class="cls-11" transform="translate(449.44 357.5)"><tspan class="cls-12">L</tspan><tspan x="2.84" y="0">o</tspan><tspan class="cls-13" x="5.91" y="0">r</tspan><tspan x="7.81" y="0">em</tspan></text><text class="cls-11" transform="translate(473.04 357.5)">Ipsum</text><text class="cls-11" transform="translate(519.95 357.5)">Ipsum</text><line class="cls-14" x1="468.14" y1="350.1" x2="468.14" y2="362.2"/><line class="cls-14" x1="492.4" y1="350.1" x2="492.4" y2="362.2"/><line class="cls-14" x1="516.65" y1="350.1" x2="516.65" y2="362.2"/><text class="cls-27" transform="translate(453.75 128.28)"><tspan class="cls-29">Fr</tspan><tspan x="7.61" y="0">ee D</tspan><tspan class="cls-30" x="24.82" y="0">o</tspan><tspan x="29.44" y="0">wnl</tspan><tspan class="cls-31" x="43.33" y="0">o</tspan><tspan class="cls-32" x="48.01" y="0">a</tspan><tspan x="52.5" y="0">dables a</tspan><tspan class="cls-32" x="83.97" y="0">n</tspan><tspan x="89.03" y="0">d </tspan><tspan class="cls-33" x="96.09" y="0">P</tspan><tspan class="cls-34" x="101.31" y="0">r</tspan><tspan x="104.36" y="0">intables</tspan></text><rect class="cls-9" x="438.82" y="121.39" width="7.08" height="7.08"/><text class="cls-26" transform="translate(51.98 314.51)">Lorem ipsum dolor sit amet, consectetuer adipiscing elit, sed diam <tspan x="10.21" y="7.34">nonummy nibh euismod tincidunt ut laoreet dolore magna </tspan></text><text class="cls-27" transform="translate(110.33 301.71)"><tspan class="cls-35">C</tspan><tspan class="cls-36" x="5.19" y="0">omi</tspan><tspan class="cls-32" x="19.76" y="0">n</tspan><tspan x="24.83" y="0">g Soon...</tspan></text><rect class="cls-9" x="95.41" y="294.82" width="7.08" height="7.08"/><rect class="cls-9" x="33.37" y="356.52" width="292.25" height="151.69"/><rect class="cls-28" x="253.72" y="284.47" width="56.31" height="52.84" rx="2.07"/><rect class="cls-28" x="66.58" y="374.2" width="96.59" height="96.27" rx="1.99"/><text class="cls-27" transform="translate(76.84 488.7)"><tspan class="cls-30">F</tspan><tspan x="4.56" y="0">oll</tspan><tspan class="cls-30" x="13.54" y="0">o</tspan><tspan x="18.16" y="0">w us on Inst</tspan><tspan class="cls-37" x="63.76" y="0">a</tspan><tspan x="68.25" y="0">g</tspan><tspan class="cls-38" x="73.34" y="0">r</tspan><tspan class="cls-39" x="76.37" y="0">am</tspan></text><rect class="cls-28" x="61.91" y="481.82" width="7.08" height="7.08"/><rect class="cls-28" x="194.16" y="374.2" width="96.59" height="96.27" rx="1.99"/><text class="cls-27" transform="translate(204.41 488.7)"><tspan class="cls-29">V</tspan><tspan x="5.28" y="0">isit our s</tspan><tspan class="cls-37" x="37.04" y="0">h</tspan><tspan x="42.1" y="0">op on </tspan><tspan class="cls-29" x="65.68" y="0">E</tspan><tspan x="70.52" y="0">t</tspan><tspan class="cls-29" x="73.63" y="0">s</tspan><tspan class="cls-39" x="77.33" y="0">y</tspan></text><rect class="cls-28" x="189.49" y="481.82" width="7.08" height="7.08"/><rect class="cls-28" x="480.72" y="199.15" width="86.03" height="86.03" rx="2.07"/><rect class="cls-28" x="571.91" y="208.96" width="68.89" height="68.89" rx="2.07"/><rect class="cls-28" x="406.68" y="208.96" width="68.89" height="68.89" rx="2.07"/><path class="cls-28" d="M391.27,244.62,393,243a1.34,1.34,0,0,0-1.89-1.89l-2.6,2.6a1.39,1.39,0,0,0,0,1.93l2.6,2.6A1.34,1.34,0,0,0,393,246.3Z"/><path class="cls-28" d="M653.17,244.62l-1.67,1.68a1.34,1.34,0,1,0,1.89,1.89l2.6-2.6a1.39,1.39,0,0,0,0-1.93l-2.6-2.6A1.34,1.34,0,1,0,651.5,243Z"/><text class="cls-40" transform="translate(929.95 670.6)"><tspan class="cls-41">W</tspan><tspan class="cls-7" x="10.69" y="0">i</tspan><tspan class="cls-18" x="13.32" y="0">r</tspan><tspan x="17.12" y="0">e</tspan><tspan class="cls-42" x="23.03" y="0">f</tspan><tspan class="cls-3" x="27.13" y="0">r</tspan><tspan x="30.96" y="0">a</tspan><tspan class="cls-43" x="36.73" y="0">m</tspan><tspan x="47.13" y="0">es</tspan><tspan class="cls-44"><tspan x="-38.52" y="11.74">Miles</tspan><tspan class="cls-45" x="-11.92" y="11.74">t</tspan><tspan x="-7.84" y="11.74">o</tspan><tspan class="cls-4" x="-1.43" y="11.74">n</tspan><tspan x="5.39" y="11.74">e </tspan><tspan class="cls-46" x="14.33" y="11.74">P</tspan><tspan class="cls-3" x="21.39" y="11.74">r</tspan><tspan class="cls-47" x="25.52" y="11.74">oje</tspan><tspan class="cls-48" x="41.1" y="11.74">c</tspan><tspan class="cls-47" x="46.96" y="11.74">t 1</tspan><tspan x="-127.79" y="23.48">User </tspan><tspan class="cls-49" x="-101.73" y="23.48">C</tspan><tspan x="-94.74" y="23.48">ent</tspan><tspan class="cls-50" x="-77.55" y="23.48">r</tspan><tspan x="-73.38" y="23.48">ic </tspan><tspan class="cls-46" x="-61.88" y="23.48">F</tspan><tspan class="cls-3" x="-55.73" y="23.48">r</tspan><tspan class="cls-47" x="-51.6" y="23.48">on</tspan><tspan class="cls-45" x="-38.44" y="23.48">t</tspan><tspan x="-34.35" y="23.48">e</tspan><tspan class="cls-4" x="-28.17" y="23.48">n</tspan><tspan x="-21.36" y="23.48">d D</tspan><tspan class="cls-46" x="-3.74" y="23.48">e</tspan><tspan class="cls-5" x="2.34" y="23.48">v</tspan><tspan x="8.04" y="23.48">elop</tspan><tspan class="cls-4" x="30.31" y="23.48">m</tspan><tspan class="cls-7" x="40.63" y="23.48">ent</tspan></tspan><tspan class="cls-51"><tspan x="56.26" y="30.08"> </tspan></tspan></text></svg>