<svg id="Layer_1" data-name="Layer 1" xmlns="http://www.w3.org/2000/svg" viewBox="0 0 100 100"><defs><style>.cls-1{fill:#394d5b;}</style></defs><path class="cls-1" d="M80.92,3.83c-19.73,0-39.47,0-59.2,0a12.61,12.61,0,0,0-11.75,8C7.89,17.32,9,22.13,13.28,26.13a5.21,5.21,0,0,1,1.63,3.35,27,27,0,0,1,.23,2.83,86.49,86.49,0,0,1-1.38,14.9,5.72,5.72,0,0,0,.05,2.26c.54,2.18,2.16,3.17,4.27,3.53a3.19,3.19,0,0,1,.08.46c0,3.06,0,6.12,0,9.19a2.16,2.16,0,0,1-.26.92c-1.66,3.45-3.34,6.89-5,10.34Q9.57,80.8,6.23,87.69C5,90.22,6.22,92.44,9,92.75a7,7,0,0,0,6.7-3.67c1.44-2.91,2.82-5.84,4.27-8.75a3.62,3.62,0,0,1,4.61-1.92c-.18.38-.34.78-.52,1.16-.89,1.84-1.79,3.67-2.68,5.51-1.25,2.62.1,4.91,3,5.07a6.22,6.22,0,0,0,4.75-1.61,15.66,15.66,0,0,0,2.36-3.35A3.76,3.76,0,0,1,36,83.46c-.16.35-.3.71-.47,1.06-1.47,3.06-3,6.1-4.42,9.16a3.21,3.21,0,0,0,2.7,4.85,7,7,0,0,0,6.9-3.69C42.65,90.92,44.55,87,46.46,83c1.52-3.15,3-6.3,4.58-9.44.92-1.88,3-2.78,4.62-1.95-.16.35-.31.72-.48,1.08L50,83.35c-1.24,2.56.08,4.84,2.92,5.05a7,7,0,0,0,6.64-3.78c.42-.84.8-1.72,1.25-2.55a3.63,3.63,0,0,1,4.44-1.6c-.18.39-.34.79-.53,1.18-1.33,2.76-2.68,5.51-4,8.27-1.24,2.6.15,4.88,3,5A7.08,7.08,0,0,0,70.36,91q6.15-12.69,12.27-25.4a6.27,6.27,0,0,0,.59-2.48c.06-3.06,0-6.13,0-9.19,0-.32,0-.63.07-1,.37,0,.66,0,.94,0A4.69,4.69,0,0,0,89.05,47c-.17-.93-.32-1.87-.44-2.81-.59-4.67-1.22-9.33-.77-14.06A6.14,6.14,0,0,1,89.65,26a12.19,12.19,0,0,0,3.67-5.62A12.93,12.93,0,0,0,80.92,3.83ZM18.06,50a1.78,1.78,0,0,1-1.46-2.26A83.16,83.16,0,0,0,18,32.1a32.18,32.18,0,0,0-.4-3.91,6.61,6.61,0,0,0-2.06-3.88c-2.26-2.16-3.83-4.61-3.66-8a10,10,0,0,1,9.66-9.6q25.17-.06,50.34,0c.15,0,.29,0,.56,0-.17.22-.26.4-.39.53-4.43,4-6.39,12.52-.25,18.33a7.44,7.44,0,0,1,2.25,5.47,83.11,83.11,0,0,1-1.37,16.43,17.41,17.41,0,0,0,0,2.52H19.59A11.17,11.17,0,0,1,18.06,50ZM80.19,62.68h-59V53h59ZM88.38,23c-2.92,2.64-3.78,5.93-3.55,9.57.3,4.9.81,9.8,1.33,14.69.23,2.17-.56,3-2.92,2.63v-5.3c0-1.43-.48-2.09-1.5-2.07s-1.47.66-1.47,2.12v5.37c-1.12,0-2.14.07-3.14,0-1.2-.11-1.73-1-1.56-2.29.41-3.14.91-6.28,1.2-9.43.32-3.52.61-7.09-.33-10.55a13,13,0,0,0-1.81-3.29,10.74,10.74,0,0,0-1.24-1.38,9.48,9.48,0,0,1-1.33-11,10,10,0,0,1,18.61,2.53C91.34,17.78,90.85,20.81,88.38,23Z"/></svg>