<svg id="Layer_1" data-name="Layer 1" xmlns="http://www.w3.org/2000/svg" viewBox="0 0 100 100"><defs><style>.cls-1{fill:#394d5b;}</style></defs><path class="cls-1" d="M52.22,14.3a7.83,7.83,0,0,1-1.87,4.92c-.54.73-1.19,1.37-1.78,2.07-2.74,3.25-2.85,5-.57,8.54a6.16,6.16,0,0,1,1,1.77,1.65,1.65,0,0,1-.5,1.42A1.7,1.7,0,0,1,47,33c-3.43-2.17-4.66-7.62-2.47-11.25.88-1.44,2.08-2.69,3.11-4.05,1.95-2.58,2-4.42.31-7.16a8.51,8.51,0,0,1-1.21-2,2,2,0,0,1,.44-1.77A1.87,1.87,0,0,1,48.9,7,9.29,9.29,0,0,1,52.22,14.3Z"/><path class="cls-1" d="M37.15,15c-.38.82-1,2.47-1.9,4a10.79,10.79,0,0,1-1.78,2.06c-2.76,2.91-3.23,5.45-.68,8.77.28.36.7.75.71,1.14a10.54,10.54,0,0,1-.35,2.12c-.6-.17-1.37-.15-1.77-.53-3.95-3.67-4.25-8.28-.89-12.49.71-.89,1.49-1.72,2.16-2.64,1.78-2.44,1.82-4.3.18-6.88a9.61,9.61,0,0,1-1.25-2,2,2,0,0,1,.35-1.77,1.83,1.83,0,0,1,1.75.12C35.9,8.76,37.09,11.14,37.15,15Z"/><path class="cls-1" d="M68.78,13.72A7.68,7.68,0,0,1,67,19.14c-.57.71-1.24,1.34-1.83,2-2.84,3.28-2.94,5.07-.56,8.83.56.89,1.8,1.92.48,2.92-1.54,1.17-2.13-.48-2.82-1.4-3.26-4.33-3.19-7.47.21-11.67.43-.54.9-1,1.33-1.56,2.6-3.22,2.67-4.68.38-8.26-.65-1-1.91-2.15-.49-3.22s2.22.51,3,1.36A7.88,7.88,0,0,1,68.78,13.72Z"/><path class="cls-1" d="M75.91,75.39a9.91,9.91,0,0,1,3.2-1.77C86.29,72,92.17,66.06,93.08,57c.58-5.74-.77-10.92-6.48-13.9-.38-.2-.87-.5-1-.87-.91-2.71-3.12-2.58-5.33-2.57H47.78c-11.18,0-22.36,0-33.53,0-3.33,0-4.43,1.09-4.24,4.29a122.91,122.91,0,0,0,1.13,12.59C12.83,66.87,17,75.67,27,80.62c.35.18.59.6.87.91a6.63,6.63,0,0,1-1.31.27c-4.45,0-8.89,0-13.34,0a13.69,13.69,0,0,0-3.38.37A3.73,3.73,0,0,0,7,86a3.48,3.48,0,0,0,3,3.26,26.5,26.5,0,0,0,4.07.52q6.64.46,13.31.85c1.4.08,2.67.21,3.59,1.53A4.79,4.79,0,0,0,35.18,94c7.87,0,15.74.09,23.61,0A5.91,5.91,0,0,0,62.7,92.3a4.94,4.94,0,0,1,3.85-1.69c4.9-.25,9.79-.55,14.68-.86a29.32,29.32,0,0,0,4.08-.49,3.55,3.55,0,0,0,3.07-3.2,3.79,3.79,0,0,0-2.76-3.84,13.57,13.57,0,0,0-3.37-.39c-4.22,0-8.44,0-12.66,0a10.24,10.24,0,0,1-1.86-.38c.45-.32.9-.63,1.34-1C71.34,78.77,73.59,77,75.91,75.39ZM85.49,48a7.84,7.84,0,0,1,.46-1.6,7.48,7.48,0,0,1,1.66,1.1A9.8,9.8,0,0,1,90,54.37c-.32,7.29-2.76,12.13-8.41,15a6.16,6.16,0,0,1-.94.33c0-.3-.19-.68-.07-.91C84,62.3,84.94,55.21,85.49,48ZM59.18,80.71C49.65,82.49,40.11,82.59,30.87,79c-7.75-3-12.67-8.58-15.17-16.48a59.41,59.41,0,0,1-2.59-17.51c0-2.38,0-2.43,2.42-2.43q16.1,0,32.18,0H78.86a11.88,11.88,0,0,1,2.39.07c.42.09,1.08.61,1.08,1,0,9.56-.86,18.95-6.58,27.08C71.72,76.44,65.86,79.46,59.18,80.71Z"/><path class="cls-1" d="M17.72,54.75c.17-.25.53-1.21.87-1.2a2.41,2.41,0,0,1,1.84,1,16.72,16.72,0,0,1,.92,3.28c1.59,5.77,4.19,10.87,9.74,13.82a41.75,41.75,0,0,0,5.38,2.12c.63.24,1.33.3,2,.5.93.3,1.73.81,1.45,2s-1.14,1.23-2.15,1a27.07,27.07,0,0,1-9.81-3.82C22.63,69.84,17.62,60.9,17.72,54.75Z"/></svg>