<svg id="Layer_1" data-name="Layer 1" xmlns="http://www.w3.org/2000/svg" viewBox="0 0 100 100"><defs><style>.cls-1{fill:#394d5b;}</style></defs><path class="cls-1" d="M97.7,26.4A1.33,1.33,0,0,0,96.23,25L91.88,25c-.08-1-.13-2-.22-2.91a6.27,6.27,0,0,0-2.15-4,6.93,6.93,0,0,0-4.93-1.71c-4.7,0-14.82,0-15.24,0,0-.44,0-5.6,0-7.83A1.34,1.34,0,0,0,68,6.91c-.3,0-.61,0-1-.08V5H64.43V6.84l-.42,0c-1.66.06-2,.46-2,2.1v7.3c-.28,0-43.08.06-46,0a8.86,8.86,0,0,0-4.65,1.29,8.15,8.15,0,0,0-4.15,6.76,43.16,43.16,0,0,0,.23,5.56c.13,2,1.26,16.15,1.45,18.34.11,1.29.24,2.57.38,3.85a1.11,1.11,0,0,0,1.07,1.11c.25,0,2.86.07,4,.08,0,.26,0,3.65,0,5.19,0,1.28.42,1.69,1.7,1.71l1.1,0c0,.31,0,3.2.08,4.45a1.25,1.25,0,0,0,1.27,1.13,1.26,1.26,0,0,0,1.21-1.2c0-.35,0-3.23,0-4.41.43,0,.77,0,1.11,0,1.47.13,2-.61,1.94-1.87-.09-1.62,0-3.27,0-5,.41,0,3.3,0,4.43,0,1.38,0,1.78-.46,1.79-1.84s0-2.58,0-3.88a6.48,6.48,0,0,1,6.44-6.49c5.67,0,18.09.08,18.6.21a6.11,6.11,0,0,1,4.81,5.29c.18,1.85.1,17.77.1,19.59-.46,0-54.3,0-54.73.06a3.37,3.37,0,0,0-3,2.54c-.35,1.14,1.29,13.44,1.58,15a5.22,5.22,0,0,0,3.85,4.41,8.63,8.63,0,0,0,2.42.3H83.29a12,12,0,0,0,1.89-.15,5.11,5.11,0,0,0,4.37-3.86A17.51,17.51,0,0,0,90,81.67c.31-2.35.59-4.68.89-7,.17-1.34.37-2.67.5-4a42.45,42.45,0,0,0,.38-4.5c0-5.45,0-10.9,0-16.36V48.69l4.2,0c1.19,0,1.67-.48,1.71-1.64v-.2C97.71,40.16,97.72,26.55,97.7,26.4Zm-33-16.82h2v6.69h-2ZM20,57.5H16.84V53.37c1.07,0,2.07,0,3.18-.06ZM5,68.75H59.84c1.18,0,1.56-.42,1.56-1.61,0-6.52,0-13,0-19.57A8.77,8.77,0,0,0,56,39.26a9.13,9.13,0,0,0-3.93-.79c-5.51,0-11-.06-16.54,0a8.92,8.92,0,0,0-8.42,5.18,9.75,9.75,0,0,0-.91,4.18c0,.94,0,1.87,0,2.85H11.75c-.08-.55-2.09-24.95-2-26.19A6.07,6.07,0,0,1,14.66,19c1.23-.23,66.8-.17,69.92-.17a4.25,4.25,0,0,1,4.61,4.08c0,.28,0,29,0,43.1,0,1.41-.2,2.82-.3,4.32H3.69C3.4,69.16,3.74,68.75,5,68.75ZM95,46H91.88V27.69H95Z"/><path class="cls-1" d="M55.16,28.25a4,4,0,0,0-3.87-4,4,4,0,1,0-.07,8A4,4,0,0,0,55.16,28.25Z"/><path class="cls-1" d="M73.28,28.26a6.57,6.57,0,1,1-6.52-6.63A6.51,6.51,0,0,1,73.28,28.26Z"/></svg>