<?xml version="1.0" encoding="utf-8"?>
<!-- Generator: Adobe Illustrator 24.3.0, SVG Export Plug-In . SVG Version: 6.00 Build 0)  -->
<svg version="1.1" id="Layer_1" xmlns="http://www.w3.org/2000/svg" xmlns:xlink="http://www.w3.org/1999/xlink" x="0px" y="0px"
	 viewBox="0 0 70 70" style="enable-background:new 0 0 70 70;" xml:space="preserve">
<style type="text/css">
	.st0{fill:#394D5B;}
	.st1{fill:#E2E2E1;}
</style>
<g>
	<circle class="st0" cx="34.75" cy="34.57" r="34.25"/>
	<g>
		<path class="st1" d="M15.87,34.09l-1.95,1.97v2.51h-1.01v-9.53h1.01v5.76l5.6-5.76h1.16l-4.13,4.32l4.41,5.22h-1.2L15.87,34.09z"
			/>
		<path class="st1" d="M27.62,36.84l0.54,0.63c-0.64,0.76-1.62,1.17-2.75,1.17c-2.23,0-3.77-1.52-3.77-3.65
			c0-2.12,1.48-3.64,3.54-3.64c1.92,0,3.36,1.4,3.43,3.42l-5.88,1.14c0.35,1.16,1.36,1.87,2.7,1.87
			C26.32,37.78,27.09,37.46,27.62,36.84z M22.59,34.92c0,0.11,0,0.2,0.01,0.3l5.05-0.98c-0.2-1.17-1.14-2.06-2.46-2.06
			C23.66,32.18,22.59,33.3,22.59,34.92z"/>
		<path class="st1" d="M37.49,34.41v4.15h-0.97v-4.06c0-1.51-0.79-2.29-2.15-2.29c-1.54,0-2.51,0.95-2.51,2.59v3.76H30.9V31.4h0.93
			v1.32c0.52-0.87,1.48-1.37,2.72-1.37C36.29,31.35,37.49,32.36,37.49,34.41z"/>
		<path class="st1" d="M46.99,31.4v7.16h-0.93v-1.42c-0.59,0.97-1.58,1.48-2.76,1.48c-2.04,0-3.57-1.48-3.57-3.65
			c0-2.16,1.53-3.64,3.57-3.64c1.14,0,2.12,0.49,2.72,1.42V31.4H46.99z M46.03,34.99c0-1.67-1.14-2.79-2.66-2.79
			c-1.52,0-2.67,1.12-2.67,2.79c0,1.68,1.14,2.79,2.67,2.79C44.89,37.78,46.03,36.66,46.03,34.99z"/>
		<path class="st1" d="M56.58,34.41v4.15h-0.97v-4.06c0-1.51-0.79-2.29-2.15-2.29c-1.54,0-2.51,0.95-2.51,2.59v3.76h-0.97v-10.1
			h0.97v4.19c0.53-0.83,1.47-1.31,2.68-1.31C55.38,31.35,56.58,32.36,56.58,34.41z"/>
	</g>
</g>
</svg>
