<?xml version="1.0" encoding="utf-8"?>
<!-- Generator: Adobe Illustrator 24.3.0, SVG Export Plug-In . SVG Version: 6.00 Build 0)  -->
<svg version="1.1" id="Layer_1" xmlns="http://www.w3.org/2000/svg" xmlns:xlink="http://www.w3.org/1999/xlink" x="0px" y="0px"
	 viewBox="0 0 70 70" style="enable-background:new 0 0 70 70;" xml:space="preserve">
<style type="text/css">
	.st0{fill:#394D5B;}
	.st1{fill:#E2E2E1;}
</style>
<g>
	<circle class="st0" cx="35" cy="35" r="34.25"/>
	<g>
		<path class="st1" d="M16.12,34.51l-1.95,1.97v2.51h-1.01v-9.53h1.01v5.76l5.6-5.76h1.16l-4.13,4.32l4.41,5.22h-1.2L16.12,34.51z"
			/>
		<path class="st1" d="M27.88,37.26l0.54,0.63c-0.64,0.76-1.62,1.17-2.75,1.17c-2.23,0-3.77-1.52-3.77-3.65
			c0-2.12,1.48-3.64,3.54-3.64c1.92,0,3.36,1.4,3.43,3.42l-5.88,1.14c0.35,1.16,1.36,1.87,2.7,1.87
			C26.57,38.2,27.35,37.89,27.88,37.26z M22.84,35.34c0,0.11,0,0.2,0.01,0.3l5.05-0.98c-0.2-1.17-1.14-2.06-2.46-2.06
			C23.92,32.61,22.84,33.72,22.84,35.34z"/>
		<path class="st1" d="M37.74,34.84v4.15h-0.97v-4.06c0-1.51-0.79-2.29-2.15-2.29c-1.54,0-2.51,0.95-2.51,2.59v3.76h-0.97v-7.16
			h0.93v1.32c0.52-0.87,1.48-1.37,2.72-1.37C36.55,31.78,37.74,32.78,37.74,34.84z"/>
		<path class="st1" d="M47.24,31.83v7.16h-0.93v-1.42c-0.59,0.97-1.58,1.48-2.76,1.48c-2.04,0-3.57-1.48-3.57-3.65
			c0-2.16,1.53-3.64,3.57-3.64c1.14,0,2.12,0.49,2.72,1.42v-1.36H47.24z M46.29,35.41c0-1.67-1.14-2.79-2.66-2.79
			c-1.52,0-2.67,1.12-2.67,2.79c0,1.68,1.14,2.79,2.67,2.79C45.14,38.2,46.29,37.09,46.29,35.41z"/>
		<path class="st1" d="M56.84,34.84v4.15h-0.97v-4.06c0-1.51-0.79-2.29-2.15-2.29c-1.54,0-2.51,0.95-2.51,2.59v3.76h-0.97v-10.1
			h0.97v4.19c0.53-0.83,1.47-1.31,2.68-1.31C55.64,31.78,56.84,32.78,56.84,34.84z"/>
	</g>
</g>
</svg>
